<svg width="48" height="48" viewBox="0 0 48 48" fill="none" xmlns="http://www.w3.org/2000/svg">
<path d="M0 0H40C44.4183 0 48 3.58172 48 8V40C48 44.4183 44.4183 48 40 48H8C3.58172 48 0 44.4183 0 40V0Z" fill="#002BDC"/>
<path d="M15.6 30.8235L17.6471 27.2941C16.0941 27.2941 14.7647 26.7412 13.6588 25.6353C12.5529 24.5294 12 23.2 12 21.6471C12 20.0941 12.5529 18.7647 13.6588 17.6588C14.7647 16.5529 16.0941 16 17.6471 16C19.2 16 20.5294 16.5529 21.6353 17.6588C22.7412 18.7647 23.2941 20.0941 23.2941 21.6471C23.2941 22.1882 23.2292 22.6885 23.0993 23.1478C22.9694 23.6071 22.7755 24.048 22.5176 24.4706L18.0353 32.2353C17.9176 32.4471 17.7529 32.6179 17.5412 32.7478C17.3294 32.8776 17.0941 32.9421 16.8353 32.9412C16.2941 32.9412 15.8885 32.7059 15.6184 32.2353C15.3482 31.7647 15.3421 31.2941 15.6 30.8235ZM28.3059 30.8235L30.3529 27.2941C28.8 27.2941 27.4706 26.7412 26.3647 25.6353C25.2588 24.5294 24.7059 23.2 24.7059 21.6471C24.7059 20.0941 25.2588 18.7647 26.3647 17.6588C27.4706 16.5529 28.8 16 30.3529 16C31.9059 16 33.2353 16.5529 34.3412 17.6588C35.4471 18.7647 36 20.0941 36 21.6471C36 22.1882 35.9351 22.6885 35.8052 23.1478C35.6753 23.6071 35.4814 24.048 35.2235 24.4706L30.7412 32.2353C30.6235 32.4471 30.4588 32.6179 30.2471 32.7478C30.0353 32.8776 29.8 32.9421 29.5412 32.9412C29 32.9412 28.5939 32.7059 28.3228 32.2353C28.0518 31.7647 28.0461 31.2941 28.3059 30.8235Z" fill="white"/>
</svg>
