<svg width="40" height="40" viewBox="0 0 40 40" fill="none" xmlns="http://www.w3.org/2000/svg">
<g clip-path="url(#clip0_249_4743)">
<circle cx="20" cy="20" r="20" fill="#002BDC"/>
<path d="M22.8378 28.2C21.5845 28.2 20.4778 27.9467 19.5178 27.44C18.5578 26.92 17.7845 26.1867 17.1978 25.24C16.6245 24.2933 16.2711 23.18 16.1378 21.9H13.3778V28H10.8178V13.9H13.3778V19.8H16.1578C16.3178 18.5467 16.6845 17.4667 17.2578 16.56C17.8445 15.64 18.6111 14.9333 19.5578 14.44C20.5045 13.9467 21.5978 13.7 22.8378 13.7C24.2245 13.7 25.4245 14 26.4378 14.6C27.4511 15.1867 28.2378 16.02 28.7978 17.1C29.3578 18.18 29.6378 19.46 29.6378 20.94C29.6378 22.42 29.3578 23.7067 28.7978 24.8C28.2378 25.88 27.4445 26.72 26.4178 27.32C25.4045 27.9067 24.2111 28.2 22.8378 28.2ZM22.8378 26.02C24.1445 26.02 25.1578 25.5733 25.8778 24.68C26.5978 23.7867 26.9578 22.54 26.9578 20.94C26.9578 19.34 26.5978 18.1 25.8778 17.22C25.1578 16.3267 24.1445 15.88 22.8378 15.88C21.5445 15.88 20.5378 16.3267 19.8178 17.22C19.0978 18.1 18.7378 19.34 18.7378 20.94C18.7378 22.54 19.0978 23.7867 19.8178 24.68C20.5378 25.5733 21.5445 26.02 22.8378 26.02Z" fill="white"/>
</g>
<defs>
<clipPath id="clip0_249_4743">
<rect width="40" height="40" fill="white"/>
</clipPath>
</defs>
</svg>
