<svg width="40" height="40" viewBox="0 0 40 40" fill="none" xmlns="http://www.w3.org/2000/svg">
<g clip-path="url(#clip0_1330_5257)">
<circle cx="20" cy="20" r="20" fill="#002BDC"/>
<path d="M13.2289 20.94C13.2289 19.46 13.4956 18.18 14.0289 17.1C14.5756 16.02 15.3556 15.1867 16.3689 14.6C17.3822 14 18.5889 13.7 19.9889 13.7C21.3756 13.7 22.5756 14 23.5889 14.6C24.6022 15.1867 25.3822 16.02 25.9289 17.1C26.4889 18.18 26.7689 19.4533 26.7689 20.92C26.7689 22.4 26.4889 23.6867 25.9289 24.78C25.3822 25.86 24.6022 26.7 23.5889 27.3C22.5756 27.9 21.3756 28.2 19.9889 28.2C18.5889 28.2 17.3822 27.9 16.3689 27.3C15.3689 26.7 14.5956 25.86 14.0489 24.78C13.5022 23.6867 13.2289 22.4067 13.2289 20.94ZM15.9289 20.94C15.9289 22.5267 16.2689 23.7667 16.9489 24.66C17.6289 25.5533 18.6422 26 19.9889 26C21.2956 26 22.3022 25.5533 23.0089 24.66C23.7156 23.7667 24.0689 22.5267 24.0689 20.94C24.0689 19.34 23.7156 18.1 23.0089 17.22C22.3156 16.34 21.3089 15.9 19.9889 15.9C18.6422 15.9 17.6289 16.34 16.9489 17.22C16.2689 18.1 15.9289 19.34 15.9289 20.94Z" fill="white"/>
</g>
<defs>
<clipPath id="clip0_1330_5257">
<rect width="40" height="40" fill="white"/>
</clipPath>
</defs>
</svg>
